<?xml version="1.0" encoding="UTF-8" standalone="no"?>
<!-- Created with Inkscape (http://www.inkscape.org/) -->

<svg
   xmlns:dc="http://purl.org/dc/elements/1.1/"
   xmlns:cc="http://creativecommons.org/ns#"
   xmlns:rdf="http://www.w3.org/1999/02/22-rdf-syntax-ns#"
   xmlns:svg="http://www.w3.org/2000/svg"
   xmlns="http://www.w3.org/2000/svg"
   xmlns:sodipodi="http://sodipodi.sourceforge.net/DTD/sodipodi-0.dtd"
   xmlns:inkscape="http://www.inkscape.org/namespaces/inkscape"
   width="192"
   height="48"
   id="svg2988"
   version="1.1"
   inkscape:version="0.48.4 r9939"
   sodipodi:docname="totale_en.svg">
  <defs
     id="defs2990" />
  <sodipodi:namedview
     id="base"
     pagecolor="#ffffff"
     bordercolor="#666666"
     borderopacity="1.0"
     inkscape:pageopacity="0.0"
     inkscape:pageshadow="2"
     inkscape:zoom="3.959798"
     inkscape:cx="131.91337"
     inkscape:cy="-5.0829588"
     inkscape:document-units="px"
     inkscape:current-layer="layer1"
     showgrid="false"
     showborder="false"
     inkscape:window-width="1858"
     inkscape:window-height="1058"
     inkscape:window-x="-8"
     inkscape:window-y="-8"
     inkscape:window-maximized="1" />
  <metadata
     id="metadata2993">
    <rdf:RDF>
      <cc:Work
         rdf:about="">
        <dc:format>image/svg+xml</dc:format>
        <dc:type
           rdf:resource="http://purl.org/dc/dcmitype/StillImage" />
        <dc:title></dc:title>
      </cc:Work>
    </rdf:RDF>
  </metadata>
  <g
     inkscape:groupmode="layer"
     id="layer2"
     inkscape:label="Sfondo"
     style="display:inline">
    <path
       inkscape:connector-curvature="0"
       style="fill:#000000;fill-opacity:1;fill-rule:nonzero;stroke:#000000;stroke-width:3.2598424px;stroke-linecap:round;stroke-linejoin:round;stroke-opacity:1;stroke-dasharray:none"
       d="m 1.6299212,1005.9803 44.7519678,0 0,44.752 -44.7519678,0 z"
       id="path3002"
       transform="translate(0,-1004.3622)"
       inkscape:export-filename="C:\Users\allulll\Documents\atacmobile\trunk\atacmobile\percorso\js\public\toolbar\luogo_en.png"
       inkscape:export-xdpi="449.68967"
       inkscape:export-ydpi="449.68967" />
    <rect
       transform="translate(0,-1004.3622)"
       style="fill:#000000;stroke:#000000;stroke-width:3.26945567;stroke-linecap:round;stroke-linejoin:round;stroke-miterlimit:4;stroke-opacity:1;stroke-dasharray:none"
       id="rect3001"
       width="44.730545"
       height="44.730545"
       x="49.634727"
       y="1005.9969"
       inkscape:export-filename="C:\Users\allulll\Documents\atacmobile\trunk\grafica\toolbar\linea_en.png"
       inkscape:export-xdpi="450"
       inkscape:export-ydpi="450" />
    <rect
       transform="translate(0,-1004.3622)"
       style="fill:#000000;stroke:#000000;stroke-width:3.26945567;stroke-linecap:round;stroke-linejoin:round;stroke-miterlimit:4;stroke-opacity:1;stroke-dasharray:none"
       id="rect3001-0"
       width="44.730545"
       height="44.730545"
       x="97.634727"
       y="1005.9969"
       inkscape:export-filename="C:\Users\allulll\Documents\atacmobile\trunk\grafica\toolbar\mappa_en.png"
       inkscape:export-xdpi="450"
       inkscape:export-ydpi="450" />
    <rect
       transform="translate(0,-1004.3622)"
       style="fill:#000000;stroke:#000000;stroke-width:3.26945567;stroke-linecap:round;stroke-linejoin:round;stroke-miterlimit:4;stroke-opacity:1;stroke-dasharray:none;display:inline"
       id="rect3001-8"
       width="44.730545"
       height="44.730545"
       x="145.63474"
       y="1005.9969"
       inkscape:export-filename="C:\Users\allulll\Documents\atacmobile\trunk\grafica\toolbar\percorso_en.png"
       inkscape:export-xdpi="450"
       inkscape:export-ydpi="450" />
    <g
       style="display:inline"
       id="g3020"
       transform="translate(-28.709441,-1021.0386)"
       inkscape:export-filename="C:\Users\allulll\Documents\atacmobile\trunk\grafica\toolbar\preferiti_en.png"
       inkscape:export-xdpi="450"
       inkscape:export-ydpi="450">
      <rect
         inkscape:export-ydpi="450"
         inkscape:export-xdpi="450"
         inkscape:export-filename="C:\Users\allulll\Documents\atacmobile\trunk\grafica\toolbar\preferiti.png"
         y="1022.6733"
         x="222.34418"
         height="44.730545"
         width="44.730545"
         id="rect3001-8-7"
         style="fill:#000000;stroke:#000000;stroke-width:3.26945567;stroke-linecap:round;stroke-linejoin:round;stroke-miterlimit:4;stroke-opacity:1;stroke-dasharray:none;display:inline" />
    </g>
  </g>
  <g
     inkscape:label="Livello 1"
     inkscape:groupmode="layer"
     id="layer1"
     transform="translate(0,-1004.3622)"
     style="display:inline">
    <path
       inkscape:connector-curvature="0"
       style="fill:#ffffff;fill-opacity:1;fill-rule:nonzero;stroke:#ffffff;stroke-width:0.88582677px;stroke-linecap:butt;stroke-linejoin:miter;stroke-miterlimit:4;stroke-opacity:1;stroke-dasharray:none"
       d="m 23.952756,1008.815 c -5.492126,0 -9.850394,4.6771 -9.850394,10.3819 0,7.7952 8.326772,15.874 8.326772,15.874 1.133858,1.063 1.842519,1.1693 3.047244,0 0,0 8.43307,-8.0788 8.43307,-15.874 0,-5.7048 -4.464567,-10.3819 -9.956692,-10.3819 z m 0.07087,14.6338 c -2.622048,0 -4.712599,-2.0905 -4.712599,-4.7126 0,-2.5866 2.090551,-4.6771 4.712599,-4.6771 2.586614,0 4.677165,2.0905 4.677165,4.6771 0,2.6221 -2.090551,4.7126 -4.677165,4.7126 z"
       id="path3014"
       inkscape:export-filename="C:\Users\allulll\Documents\atacmobile\trunk\atacmobile\percorso\js\public\toolbar\luogo_en.png"
       inkscape:export-xdpi="449.68967"
       inkscape:export-ydpi="449.68967" />
    <text
       xml:space="preserve"
       style="font-size:9.99998665px;font-style:normal;font-weight:normal;text-align:center;line-height:125%;letter-spacing:0px;word-spacing:0px;text-anchor:middle;fill:#ffffff;fill-opacity:1;stroke:none;font-family:Sans"
       x="71.83992"
       y="1048.2679"
       id="text3071"
       sodipodi:linespacing="125%"
       transform="scale(0.99999861,1.0000014)"
       inkscape:export-filename="C:\Users\allulll\Documents\atacmobile\trunk\grafica\toolbar\linea_en.png"
       inkscape:export-xdpi="450"
       inkscape:export-ydpi="450"><tspan
         sodipodi:role="line"
         id="tspan3073"
         x="71.83992"
         y="1048.2679"
         style="font-size:10px;font-style:normal;font-variant:normal;font-weight:normal;font-stretch:normal;fill:#ffffff;font-family:Calibri;-inkscape-font-specification:Calibri">Line</tspan></text>
    <g
       transform="matrix(0.63635692,0,0,0.63636335,56.737377,375.58655)"
       id="g3147"
       style="fill:#ffffff"
       inkscape:export-filename="C:\Users\allulll\Documents\atacmobile\trunk\grafica\toolbar\linea_en.png"
       inkscape:export-xdpi="450"
       inkscape:export-ydpi="450">
      <path
         inkscape:connector-curvature="0"
         id="path3068-8-3-5"
         transform="translate(0,992.36218)"
         d="M 24,2 C 21.989756,2 19.962725,2.244485 18.4375,2.71875 L 14.28125,4 C 11.230801,4.94853 8.75,8.33735 8.75,11.53125 l 0,23.6875 c 0,3.1959 2.618646,5.8005 5.8125,5.8125 l 3.625,0.03125 c 3.195903,0.012 8.397847,0.012 11.59375,0 l 3.65625,-0.03125 c 3.195903,-0.0123 5.78125,-2.6166 5.78125,-5.8125 l 0,-23.6875 C 39.21875,8.33735 36.739997,4.94853 33.6875,4 L 29.53125,2.71875 C 28.006025,2.244485 26.010244,2 24,2 z m -3.15625,2.0625 6.28125,0 c 0.96082,-0.002 1.75,0.7405 1.75,1.65625 0,0.91575 -0.791229,1.6875 -1.75,1.6875 l -6.28125,0 c -0.958771,0 -1.75,-0.7738 -1.75,-1.6875 0,-0.9137 0.791229,-1.65625 1.75,-1.65625 z M 24,11.28125 c 1.050961,0 2.078073,0.0165 2.875,0.0625 L 33.5625,11.75 c 1.593855,0.092 2.90625,1.4645 2.90625,3.0625 l 0,5.65625 c 0,1.598 -1.310347,2.90625 -2.90625,2.90625 l -19.15625,0 c -1.597951,0 -2.875,-1.31035 -2.875,-2.90625 l 0,-5.65625 c 0,-1.598 1.281146,-2.9703 2.875,-3.0625 l 6.6875,-0.40625 c 0.796927,-0.046 1.855289,-0.0625 2.90625,-0.0625 z M 15.21875,29.0625 c 1.536497,0 2.78125,1.244753 2.78125,2.78125 0,1.536497 -1.244753,2.78125 -2.78125,2.78125 -1.536497,0 -2.78125,-1.244753 -2.78125,-2.78125 0,-1.536497 1.244753,-2.78125 2.78125,-2.78125 z m 18.46875,0 c 1.537629,0 2.78125,1.243621 2.78125,2.78125 0,1.537629 -1.243621,2.78125 -2.78125,2.78125 -1.537629,0 -2.78125,-1.243621 -2.78125,-2.78125 0,-1.537629 1.243621,-2.78125 2.78125,-2.78125 z"
         style="fill:#ffffff;fill-rule:evenodd" />
      <path
         style="fill:#ffffff;fill-rule:evenodd"
         inkscape:connector-curvature="0"
         clip-rule="evenodd"
         d="m 16.528842,1036.6085 c 0,1.389 -1.124712,1.7537 -2.507555,1.7537 l 0,0 c -1.384891,0 -2.507555,-0.3667 -2.507555,-1.7537 v -7.117 c 0,-1.3869 1.122664,-2.5076 2.507555,-2.5076 l 0,0 c 1.382843,0 2.507555,1.1207 2.507555,2.5076 v 7.117 z"
         id="path3078-1-4-7" />
      <path
         style="fill:#ffffff;fill-rule:evenodd"
         inkscape:connector-curvature="0"
         clip-rule="evenodd"
         d="m 37.160856,1036.6085 c 0,1.389 -1.120615,1.7537 -2.505506,1.7537 l 0,0 c -1.382843,0 -2.507555,-0.3667 -2.507555,-1.7537 v -7.117 c 0,-1.3869 1.124712,-2.5076 2.507555,-2.5076 l 0,0 c 1.384891,0 2.505506,1.1207 2.505506,2.5076 v 7.117 z"
         id="path3080-7-6-6" />
    </g>
    <g
       transform="matrix(0.07608687,0,0,0.07608696,100.52176,1002.8839)"
       id="g3"
       style="fill:#ffffff"
       inkscape:export-filename="C:\Users\allulll\Documents\atacmobile\trunk\grafica\toolbar\mappa_en.png"
       inkscape:export-xdpi="450"
       inkscape:export-ydpi="450">
      <path
         inkscape:connector-curvature="0"
         d="M 489.711,74.579 C 487.077,72.87 484.046,72 480.999,72 c -2.212,0 -4.432,0.458 -6.514,1.387 l -101,45.031 c -0.514,0.229 -1.004,0.491 -1.484,0.768 -0.463,-0.267 -0.936,-0.521 -1.431,-0.744 l -100,-45.031 C 268.473,72.467 266.233,72 264.001,72 261.224,72 258.463,72.731 256,74.154 253.537,72.731 250.776,72 247.999,72 c -2.232,0 -4.471,0.466 -6.569,1.411 l -100,45.031 c -0.495,0.223 -0.968,0.477 -1.431,0.744 -0.48,-0.277 -0.971,-0.539 -1.484,-0.768 l -101,-45.031 C 35.434,72.458 33.213,72 31.001,72 27.954,72 24.923,72.87 22.289,74.579 17.743,77.529 15,82.581 15,88 v 290.969 c 0,6.316 3.716,12.041 9.485,14.613 l 101,45.031 c 2.082,0.928 4.302,1.387 6.514,1.387 2.778,0 5.539,-0.731 8.001,-2.154 2.463,1.423 5.224,2.154 8.001,2.154 2.232,0 4.471,-0.466 6.569,-1.411 l 100,-45.031 c 0.494,-0.223 0.967,-0.476 1.43,-0.744 0.463,0.267 0.936,0.521 1.43,0.744 l 100,45.031 c 2.097,0.944 4.337,1.411 6.569,1.411 2.777,0 5.538,-0.731 8.001,-2.154 2.462,1.423 5.224,2.154 8.001,2.154 2.212,0 4.432,-0.458 6.514,-1.387 l 101,-45.031 C 493.284,391.01 497,385.285 497,378.969 V 88 c 0,-5.419 -2.743,-10.471 -7.289,-13.421 z M 481,378.969 380,424 v -98.297 c -5.15,3.807 -10.503,6.962 -16,9.443 V 424 L 264,378.969 v -74.741 c -3.132,-4.825 -15.151,-30.51 -16,-32.688 V 378.969 L 148,424 V 230.79 c -0.192,0.271 -0.386,0.535 -0.577,0.81 L 132,260.502 V 424 L 31,378.969 V 88 l 101,45.031 v 60.822 c 1.617,-1.647 15.466,-13.017 16,-13.377 V 133.03 L 248,88 v 99.412 c 2.474,2.856 15.048,23.716 16,25.767 V 88 l 100,45.031 V 292.28 c 0.164,-0.151 12.83,-14.521 16,-19.365 V 133.031 L 481,88 v 290.969 z"
         id="path5"
         style="fill:#ffffff" />
      <circle
         d="M 108,343.5 C 108,354.26955 99.269553,363 88.5,363 77.730447,363 69,354.26955 69,343.5 69,332.73045 77.730447,324 88.5,324 c 10.769553,0 19.5,8.73045 19.5,19.5 z"
         sodipodi:ry="19.5"
         sodipodi:rx="19.5"
         sodipodi:cy="343.5"
         sodipodi:cx="88.5"
         cx="88.5"
         cy="343.5"
         r="19.5"
         id="circle7"
         style="fill:#ffffff" />
      <path
         inkscape:connector-curvature="0"
         d="m 456.411,167.058 -6.47,-9.507 8.681,-5.907 c 3.881,-2.641 4.886,-7.928 2.245,-11.809 -2.641,-3.881 -7.928,-4.886 -11.809,-2.245 l -8.681,5.907 -5.907,-8.681 c -2.641,-3.881 -7.928,-4.886 -11.809,-2.245 -3.881,2.641 -4.886,7.928 -2.245,11.809 l 5.907,8.681 -9.507,6.47 c -3.881,2.641 -4.886,7.928 -2.245,11.809 2.641,3.881 7.928,4.886 11.809,2.245 l 9.508,-6.47 6.47,9.507 c 2.641,3.881 7.928,4.886 11.809,2.245 3.88,-2.641 4.885,-7.928 2.244,-11.809 z"
         id="path9"
         style="fill:#ffffff" />
      <g
         id="g11"
         style="fill:#ffffff">
        <path
           inkscape:connector-curvature="0"
           d="m 331.936,332.069 c -1.083,0 -2.195,-0.026 -3.308,-0.078 -2.598,-0.12 -5.17,-0.359 -7.644,-0.712 l 2.254,-15.84 c 1.974,0.28 4.037,0.472 6.132,0.569 0.867,0.04 1.729,0.061 2.565,0.061 4.393,0 8.732,-0.545 12.898,-1.619 l 3.996,15.492 c -5.47,1.412 -11.154,2.127 -16.893,2.127 z m -21.881,-3.219 c -9.084,-2.812 -17.295,-7.553 -24.406,-14.09 l 10.828,-11.779 c 5.426,4.987 11.416,8.45 18.311,10.586 l -4.733,15.283 z m 49.417,-2.621 -6.486,-14.627 c 6.321,-2.803 12.49,-6.996 18.337,-12.462 l 10.928,11.688 c -7.157,6.689 -14.82,11.87 -22.779,15.401 z m -257.06,-4.218 -14.823,-6.021 c 0.85,-2.092 2.146,-7.106 3.648,-12.913 0.804,-3.111 1.702,-6.581 2.713,-10.327 l 15.447,4.168 c -0.995,3.688 -1.878,7.103 -2.67,10.165 -1.78,6.879 -3.065,11.851 -4.315,14.928 z m 175.632,-15.393 c -5.043,-6.236 -9.615,-13.723 -13.978,-22.886 l 14.447,-6.877 c 3.813,8.012 7.729,14.456 11.972,19.702 l -12.441,10.061 z m 111.7,-3.539 -12.02,-10.562 c 4.772,-5.43 9.407,-11.86 13.776,-19.112 l 13.705,8.258 c -4.859,8.066 -10.061,15.272 -15.461,21.416 z m -277.685,-15.651 -15.356,-4.49 c 2.594,-8.869 5.239,-16.835 8.086,-24.351 l 14.962,5.668 c -2.7,7.126 -5.216,14.705 -7.692,23.173 z m 147.787,-13.213 c -3.062,-7.362 -5.83,-14.995 -8.506,-22.377 l -0.5,-1.377 15.041,-5.457 0.5,1.38 c 2.615,7.21 5.318,14.666 8.238,21.687 l -14.773,6.144 z m 150.502,-1.634 -14.121,-7.523 c 3.562,-6.684 6.996,-14.07 10.209,-21.953 l 14.816,6.038 c -3.418,8.388 -7.087,16.274 -10.904,23.438 z m -286.986,-17.317 -14.719,-6.273 c 3.608,-8.466 7.546,-16.306 11.703,-23.301 l 13.755,8.174 c -3.795,6.385 -7.408,13.586 -10.739,21.4 z m 124.053,-14.123 c -2.411,-6.424 -5.669,-14.744 -9.488,-22.113 l 14.205,-7.362 c 4.209,8.12 7.695,17.013 10.263,23.854 l -14.98,5.621 z m 177.557,-1.583 -15.006,-5.55 c 2.711,-7.332 5.292,-15.16 7.671,-23.268 l 15.354,4.505 c -2.483,8.459 -5.18,16.638 -8.019,24.313 z m -285.768,-13.654 -13.15,-9.114 c 5.404,-7.798 11.314,-14.604 17.565,-20.231 l 10.705,11.892 c -5.333,4.799 -10.42,10.672 -15.12,17.453 z m 94.117,-14.829 c -4.484,-6.858 -9.324,-11.775 -14.797,-15.032 l 8.182,-13.75 c 7.615,4.531 14.159,11.082 20.007,20.026 l -13.392,8.756 z m 202.427,-5.668 -15.457,-4.137 c 2.094,-7.822 4.012,-15.883 5.702,-23.96 l 15.66,3.276 c -1.749,8.365 -3.736,16.716 -5.905,24.821 z m -274.372,-2.599 -9.217,-13.078 c 7.718,-5.44 16.086,-9.431 24.87,-11.862 l 4.269,15.42 c -7.007,1.94 -13.71,5.143 -19.922,9.52 z m 49.805,-10.04 c -4.43,-1.388 -9.409,-1.983 -14.874,-1.774 -2.137,0.082 -4.268,0.261 -6.336,0.535 l -2.098,-15.862 c 2.56,-0.338 5.192,-0.561 7.822,-0.661 0.929,-0.036 1.846,-0.053 2.749,-0.053 6.231,0 12.126,0.857 17.521,2.547 l -4.784,15.268 z"
           id="path13"
           style="fill:#ffffff" />
      </g>
    </g>
    <text
       xml:space="preserve"
       style="font-size:12px;font-style:normal;font-weight:normal;text-align:center;line-height:125%;letter-spacing:0px;word-spacing:0px;text-anchor:middle;fill:#ffffff;fill-opacity:1;stroke:none;font-family:Sans"
       x="119.95508"
       y="1048.2694"
       id="text3071-9"
       sodipodi:linespacing="125%"
       inkscape:export-filename="C:\Users\allulll\Documents\atacmobile\trunk\grafica\toolbar\mappa_en.png"
       inkscape:export-xdpi="450"
       inkscape:export-ydpi="450"><tspan
         sodipodi:role="line"
         id="tspan3073-4"
         x="119.95508"
         y="1048.2694"
         style="font-size:10px;font-style:normal;font-variant:normal;font-weight:normal;font-stretch:normal;font-family:Calibri;-inkscape-font-specification:Calibri">Map</tspan></text>
    <text
       xml:space="preserve"
       style="font-size:12px;font-style:normal;font-weight:normal;text-align:center;line-height:125%;letter-spacing:0px;word-spacing:0px;text-anchor:middle;fill:#ffffff;fill-opacity:1;stroke:none;font-family:Sans"
       x="167.95508"
       y="1048.2694"
       id="text3071-8"
       sodipodi:linespacing="125%"
       inkscape:export-filename="C:\Users\allulll\Documents\atacmobile\trunk\grafica\toolbar\percorso_en.png"
       inkscape:export-xdpi="450"
       inkscape:export-ydpi="450"><tspan
         sodipodi:role="line"
         id="tspan3073-2"
         x="167.95508"
         y="1048.2694"
         style="font-size:10px;font-style:normal;font-variant:normal;font-weight:normal;font-stretch:normal;fill:#ffffff;font-family:Calibri;-inkscape-font-specification:Calibri">Journey</tspan></text>
    <path
       inkscape:connector-curvature="0"
       d="m 164.02533,1013.6985 c 0,-2.9479 -2.38837,-5.3363 -5.33353,-5.3363 -2.94607,0 -5.33353,2.3885 -5.33353,5.3363 0,2.9442 5.33353,8.8877 5.33353,8.8877 0,0 5.33353,-5.9435 5.33353,-8.8877 z m -7.18632,-0.043 c 0,-1.0071 0.88237,-1.8509 1.85364,-1.8509 1.01077,0 1.85188,0.8402 1.85188,1.8509 0,1.0126 -0.84111,1.8545 -1.85188,1.8564 -1.01161,0 -1.85364,-0.8494 -1.85364,-1.8564 z m 25.80272,11.6448 c 0,-2.9461 -2.38837,-5.3363 -5.3345,-5.3363 -2.94419,0 -5.33074,2.3902 -5.33074,5.3363 0,2.9442 5.33074,8.8895 5.33074,8.8895 0,0 5.3345,-5.9453 5.3345,-8.8895 z m -7.18534,-0.04 c 0,-1.0052 0.88237,-1.8509 1.85279,-1.8509 1.0107,0 1.85272,0.8419 1.85272,1.8509 0,1.0126 -0.84196,1.8545 -1.85272,1.8563 -1.01083,0 -1.85279,-0.8492 -1.85279,-1.8563 z m -16.97094,-1.8601 c -0.3889,0 -0.70446,0.3154 -0.70446,0.7044 0,0.3889 0.31556,0.7044 0.70446,0.7044 h 0.94009 c 0.38707,0 0.70256,-0.3138 0.70445,-0.7008 0.002,-0.3889 -0.31185,-0.7064 -0.70074,-0.7081 h -0.9438 z m -1.64182,6.9084 c -0.44479,0.4659 -0.67048,1.0052 -0.67048,1.6032 0,0.2698 0.0559,0.5339 0.16784,0.7852 0.11648,0.2641 0.37418,0.42 0.64392,0.42 0.0954,0 0.19257,-0.018 0.28524,-0.06 0.35583,-0.1578 0.51637,-0.5724 0.35863,-0.9282 -0.0312,-0.072 -0.0468,-0.143 -0.0468,-0.2165 0,-0.2292 0.089,-0.4293 0.28158,-0.631 0.26786,-0.2807 0.25771,-0.7282 -0.0238,-0.9961 -0.28255,-0.2678 -0.72735,-0.2586 -0.99612,0.024 z m 5.30236,-6.846 c -0.35402,-0.046 -0.72091,0.2733 -0.742,0.664 -0.0211,0.3889 0.27605,0.7209 0.66495,0.7411 0.58426,0.032 1.1676,0.082 1.72433,0.1578 0.0321,0.01 0.0633,0.01 0.0945,0.01 0.34763,0 0.6494,-0.2566 0.6971,-0.6108 0.0523,-0.3853 -0.21826,-0.7392 -0.60443,-0.7925 -0.59168,-0.079 -1.21354,-0.1321 -1.83444,-0.1651 z m 5.48301,3.6008 c 0.38525,-0.052 0.65675,-0.4053 0.60534,-0.7905 -0.0705,-0.5338 -0.37874,-1.2896 -1.44639,-1.8582 -0.34484,-0.1854 -0.77044,-0.05 -0.95297,0.2916 -0.18254,0.343 -0.0523,0.7686 0.29075,0.952 0.65305,0.3468 0.69802,0.6861 0.71266,0.798 0.0468,0.354 0.34946,0.6127 0.69703,0.6127 0.0313,0 0.0614,0 0.0936,-0.01 z m 2.10412,7.7193 c -0.58159,-0.032 -1.17685,-0.068 -1.7721,-0.1101 -0.37881,-0.059 -0.72456,0.266 -0.75209,0.6531 -0.0275,0.389 0.26505,0.7245 0.65305,0.7522 0.60442,0.043 1.20527,0.079 1.79591,0.11 0.0128,0 0.0257,0 0.0386,0 0.37242,0 0.68238,-0.2917 0.70255,-0.6678 0.0202,-0.3871 -0.27885,-0.7191 -0.66585,-0.7392 z m 4.44653,0.1522 -1.7812,-0.043 c -0.40725,0.024 -0.71546,0.2954 -0.72639,0.6843 -0.011,0.3888 0.29715,0.7136 0.68604,0.7245 l 1.79403,0.043 h 0.0147 c 0.38154,0 0.69703,-0.3063 0.70438,-0.6897 0.007,-0.3888 -0.30266,-0.7117 -0.69156,-0.7191 z m -13.18844,-1.1978 c -0.59987,-0.1431 -1.15107,-0.3009 -1.63446,-0.4787 -0.36501,-0.1321 -0.76952,0.052 -0.90527,0.4162 -0.13393,0.365 0.0523,0.7705 0.41733,0.9044 0.53109,0.1963 1.13551,0.3724 1.79591,0.5301 0.055,0.013 0.11005,0.017 0.16419,0.017 0.31829,0 0.60717,-0.2182 0.68422,-0.5411 0.0908,-0.3778 -0.14311,-0.7576 -0.52192,-0.8493 z m 16.84072,1.2089 -0.93371,0.01 c -0.38896,0 -0.70439,0.3155 -0.70439,0.7044 0,0.3889 0.31549,0.7044 0.70439,0.7044 l 0.93371,-0.01 c 0.38897,0 0.70439,-0.3156 0.70439,-0.7045 0,-0.3888 -0.31549,-0.7042 -0.70439,-0.7042 z m -16.55276,-6.5177 c -0.61822,0.143 -1.22356,0.2971 -1.78211,0.4733 -0.37055,0.1155 -0.57691,0.5117 -0.46042,0.8823 0.0953,0.3009 0.37237,0.4934 0.67231,0.4934 0.0697,0 0.14121,-0.011 0.21182,-0.032 0.52556,-0.1652 1.09419,-0.3081 1.67754,-0.4439 0.37881,-0.088 0.61451,-0.466 0.52646,-0.8457 -0.088,-0.3797 -0.46861,-0.6182 -0.8456,-0.5265 z m 4.03662,6.0096 c -0.59525,-0.064 -1.18133,-0.1396 -1.74905,-0.2221 -0.37699,-0.068 -0.74298,0.2109 -0.79888,0.5945 -0.0559,0.3852 0.21006,0.7429 0.59525,0.7997 0.58426,0.086 1.18687,0.1614 1.80047,0.2293 0.0257,0 0.0514,0.01 0.0771,0.01 0.35499,0 0.65949,-0.2679 0.69892,-0.6275 0.0431,-0.3869 -0.23668,-0.7354 -0.62376,-0.7777 z m 0.23942,-7.0461 c -0.48977,0.1669 -1.05573,0.3137 -1.65925,0.4568 -0.37881,0.09 -0.6127,0.4696 -0.52283,0.8494 0.0761,0.3228 0.36502,0.541 0.68422,0.541 0.0541,0 0.10913,-0.01 0.16327,-0.017 0.65123,-0.1539 1.263,-0.3154 1.7913,-0.497 0.36781,-0.1248 0.56408,-0.5265 0.43841,-0.8935 -0.12742,-0.3686 -0.52457,-0.5686 -0.89512,-0.4383 z"
       id="path7"
       style="fill:#ffffff"
       inkscape:export-filename="C:\Users\allulll\Documents\atacmobile\trunk\grafica\toolbar\percorso_en.png"
       inkscape:export-xdpi="450"
       inkscape:export-ydpi="450" />
    <text
       xml:space="preserve"
       style="font-size:10px;font-style:normal;font-variant:normal;font-weight:normal;font-stretch:normal;line-height:125%;letter-spacing:0px;word-spacing:0px;fill:#ffffff;fill-opacity:1;stroke:none;font-family:Calibri;-inkscape-font-specification:Calibri"
       x="13.085495"
       y="1048.2694"
       id="text3175"
       sodipodi:linespacing="125%"
       inkscape:export-filename="C:\Users\allulll\Documents\atacmobile\trunk\atacmobile\percorso\js\public\toolbar\luogo_en.png"
       inkscape:export-xdpi="449.68967"
       inkscape:export-ydpi="449.68967"><tspan
         sodipodi:role="line"
         id="tspan3177"
         x="13.085495"
         y="1048.2694">Place</tspan></text>
    <text
       transform="translate(-28.709441,-16.6764)"
       inkscape:export-ydpi="450"
       inkscape:export-xdpi="450"
       inkscape:export-filename="C:\Users\allulll\Documents\atacmobile\trunk\grafica\toolbar\preferiti_en.png"
       sodipodi:linespacing="125%"
       id="text3071-8-4"
       y="1064.9458"
       x="244.66452"
       style="font-size:12px;font-style:normal;font-weight:normal;text-align:center;line-height:125%;letter-spacing:0px;word-spacing:0px;text-anchor:middle;fill:#ffffff;fill-opacity:1;stroke:none;display:inline;font-family:Sans"
       xml:space="preserve"><tspan
         style="font-size:10px;font-style:normal;font-variant:normal;font-weight:normal;font-stretch:normal;fill:#ffffff;font-family:Calibri;-inkscape-font-specification:Calibri"
         y="1064.9458"
         x="244.66452"
         id="tspan3073-2-0"
         sodipodi:role="line">Favorites</tspan></text>
    <path
       inkscape:export-ydpi="450"
       inkscape:export-xdpi="450"
       inkscape:export-filename="C:\Users\allulll\Documents\atacmobile\trunk\grafica\toolbar\preferiti_en.png"
       inkscape:transform-center-y="-1.1492512"
       inkscape:transform-center-x="0.2323948"
       transform="matrix(0.70442429,0,0,0.70442429,130.04276,1033.5513)"
       d="m 102.65043,-19.530402 13.28542,-2.646902 5.35126,-12.444782 6.62277,11.81725 13.48932,1.243696 -9.19232,9.950364 2.9856,13.2134287 -12.30394,-5.6675868 -11.64412,6.9226521 1.58807,-13.453126 z"
       inkscape:randomized="0"
       inkscape:rounded="0"
       inkscape:flatsided="false"
       sodipodi:arg2="-2.2514747"
       sodipodi:arg1="-2.8797933"
       sodipodi:r2="10.199696"
       sodipodi:r1="20.399391"
       sodipodi:cy="-14.250651"
       sodipodi:cx="122.35473"
       sodipodi:sides="5"
       id="path3056"
       style="fill:#ffffff;fill-rule:evenodd;stroke:#ffffff;stroke-width:1px;stroke-linecap:butt;stroke-linejoin:miter;stroke-opacity:1;display:inline"
       sodipodi:type="star" />
  </g>
</svg>
